<svg width="16" height="22" viewBox="0 0 16 22" fill="none" xmlns="http://www.w3.org/2000/svg">
<path d="M15.4125 4.21008L11.9175 0.605859C11.5425 0.219141 11.0342 0 10.5054 0H1.99958C0.895833 0.00429688 0 0.928125 0 2.06637V19.9379C0 21.0762 0.895833 22 1.99958 22H14.0004C15.1042 22 16 21.0762 16 19.9379V5.67059C16 5.12531 15.7875 4.5968 15.4125 4.21008ZM10.6679 1.40035C10.7846 1.43043 10.8888 1.49059 10.9762 1.58082L14.4713 5.18504C14.5588 5.27527 14.6171 5.3827 14.6463 5.50301H10.6679V1.40035ZM14.6671 19.9379C14.6671 20.3161 14.3671 20.6254 14.0004 20.6254H1.99958C1.63292 20.6254 1.33292 20.3161 1.33292 19.9379V2.06637C1.33292 1.68824 1.63292 1.375 1.99958 1.375H9.33458V5.84676C9.33458 6.41824 9.78042 6.875 10.3346 6.875H14.6671V19.9379ZM8.66667 9.28125C8.66667 9.09133 8.5175 8.9375 8.33333 8.9375H7.66667C7.4825 8.9375 7.33333 9.09133 7.33333 9.28125V13.0634H5.13917C4.68083 13.0634 4.28125 13.3388 4.0975 13.7818C3.91 14.2338 3.99833 14.7537 4.32417 15.1057L7.1625 18.19C7.385 18.4302 7.68208 18.5634 7.99958 18.5634C8.31708 18.5634 8.61417 18.4306 8.83667 18.1895L11.675 15.1065C12.0004 14.7542 12.0892 14.2338 11.9017 13.7818C11.7179 13.3388 11.3183 13.0634 10.86 13.0634H8.66667V9.28125ZM10.4517 14.4384L8 17.1024L5.54833 14.4384H10.4517Z" fill="white"/>
</svg>
