<svg width="21" height="24" viewBox="0 0 21 24" fill="none" xmlns="http://www.w3.org/2000/svg">
<g clip-path="url(#clip0)">
<path d="M10.5053 6.6094C7.52402 6.6094 5.11934 9.01409 5.11934 11.9953C5.11934 14.9766 7.52402 17.3813 10.5053 17.3813C13.4865 17.3813 15.8912 14.9766 15.8912 11.9953C15.8912 9.01409 13.4865 6.6094 10.5053 6.6094ZM10.5053 15.4969C8.57871 15.4969 7.00371 13.9266 7.00371 11.9953C7.00371 10.0641 8.57402 8.49377 10.5053 8.49377C12.4365 8.49377 14.0068 10.0641 14.0068 11.9953C14.0068 13.9266 12.4318 15.4969 10.5053 15.4969ZM17.3678 6.38909C17.3678 7.08752 16.8053 7.64534 16.1115 7.64534C15.4131 7.64534 14.8553 7.08284 14.8553 6.38909C14.8553 5.69534 15.4178 5.13284 16.1115 5.13284C16.8053 5.13284 17.3678 5.69534 17.3678 6.38909ZM20.935 7.66409C20.8553 5.98127 20.4709 4.49065 19.2381 3.26252C18.01 2.0344 16.5193 1.65002 14.8365 1.56565C13.1021 1.46721 7.90371 1.46721 6.16934 1.56565C4.49121 1.64534 3.00059 2.02971 1.76777 3.25784C0.534961 4.48596 0.155273 5.97659 0.0708984 7.6594C-0.0275391 9.39377 -0.0275391 14.5922 0.0708984 16.3266C0.150586 18.0094 0.534961 19.5 1.76777 20.7281C3.00059 21.9563 4.48652 22.3406 6.16934 22.425C7.90371 22.5235 13.1021 22.5235 14.8365 22.425C16.5193 22.3453 18.01 21.961 19.2381 20.7281C20.4662 19.5 20.8506 18.0094 20.935 16.3266C21.0334 14.5922 21.0334 9.39846 20.935 7.66409ZM18.6943 18.1875C18.3287 19.1063 17.6209 19.8141 16.6975 20.1844C15.3146 20.7328 12.0334 20.6063 10.5053 20.6063C8.97715 20.6063 5.69121 20.7281 4.31309 20.1844C3.39434 19.8188 2.68652 19.111 2.31621 18.1875C1.76777 16.8047 1.89434 13.5235 1.89434 11.9953C1.89434 10.4672 1.77246 7.18127 2.31621 5.80315C2.68184 4.8844 3.38965 4.17659 4.31309 3.80627C5.6959 3.25784 8.97715 3.3844 10.5053 3.3844C12.0334 3.3844 15.3193 3.26252 16.6975 3.80627C17.6162 4.1719 18.324 4.87971 18.6943 5.80315C19.2428 7.18596 19.1162 10.4672 19.1162 11.9953C19.1162 13.5235 19.2428 16.8094 18.6943 18.1875Z" fill="white"/>
</g>
<defs>
<clipPath id="clip0">
<rect width="21" height="24" fill="white"/>
</clipPath>
</defs>
</svg>
