<svg width="22" height="26" viewBox="0 0 22 26" fill="none" xmlns="http://www.w3.org/2000/svg">
<g clip-path="url(#clip0)">
<path d="M17.2857 16.25C15.8812 16.25 14.6241 16.8848 13.7598 17.8902L9.07008 14.8586C9.54151 13.6703 9.54642 12.3297 9.07008 11.1414L13.7598 8.10977C14.6241 9.11523 15.8812 9.75 17.2857 9.75C19.8884 9.75 22 7.56641 22 4.875C22 2.18359 19.8884 0 17.2857 0C14.683 0 12.5714 2.18359 12.5714 4.875C12.5714 5.53516 12.6991 6.15977 12.925 6.73359L8.23526 9.76523C7.37589 8.75977 6.11875 8.125 4.71428 8.125C2.11161 8.125 0 10.3086 0 13C0 15.6914 2.11161 17.875 4.71428 17.875C6.11875 17.875 7.37589 17.2402 8.24017 16.2348L12.9299 19.2664C12.6991 19.8402 12.5763 20.4648 12.5763 21.125C12.5763 23.8164 14.6879 26 17.2906 26C19.8933 26 22.0049 23.8164 22.0049 21.125C22 18.4336 19.8884 16.25 17.2857 16.25ZM17.2857 1.625C19.0192 1.625 20.4286 3.08242 20.4286 4.875C20.4286 6.66758 19.0192 8.125 17.2857 8.125C15.5522 8.125 14.1428 6.66758 14.1428 4.875C14.1428 3.08242 15.5522 1.625 17.2857 1.625ZM4.71428 16.25C2.9808 16.25 1.57143 14.7926 1.57143 13C1.57143 11.2074 2.9808 9.75 4.71428 9.75C6.44776 9.75 7.85714 11.2074 7.85714 13C7.85714 14.7926 6.44776 16.25 4.71428 16.25ZM17.2857 24.375C15.5522 24.375 14.1428 22.9176 14.1428 21.125C14.1428 19.3324 15.5522 17.875 17.2857 17.875C19.0192 17.875 20.4286 19.3324 20.4286 21.125C20.4286 22.9176 19.0192 24.375 17.2857 24.375Z" fill="white"/>
</g>
<defs>
<clipPath id="clip0">
<rect width="22" height="26" fill="white"/>
</clipPath>
</defs>
</svg>
